<svg xmlns="http://www.w3.org/2000/svg" xmlns:xlink="http://www.w3.org/1999/xlink" width="29.53" height="40.228" viewBox="0 0 29.53 40.228">
  <defs>
    <clipPath id="clip-path">
      <rect id="Rectangle_20" data-name="Rectangle 20" width="29.53" height="40.228" fill="#30475a"/>
    </clipPath>
  </defs>
  <g id="Group_44" data-name="Group 44" transform="translate(3 1)">
    <g id="Group_43" data-name="Group 43" transform="translate(-3 -1)" clip-path="url(#clip-path)">
      <path id="Path_149" data-name="Path 149" d="M15.916,40.228a5.677,5.677,0,0,1-5.864-5.6,5.564,5.564,0,0,1,5.864-5.5,5.564,5.564,0,0,1,5.865,5.5,5.677,5.677,0,0,1-5.865,5.6m0-9.489a3.949,3.949,0,0,0-4.256,3.886,4.041,4.041,0,0,0,4.256,3.994,4.041,4.041,0,0,0,4.256-3.994,3.95,3.95,0,0,0-4.256-3.886m3.142-4.408H12.845a1.69,1.69,0,0,1-1.255-.561,1.712,1.712,0,0,1-.428-1.326c.407-3.821,2.871-6.054,5.045-8.024,1.675-1.518,3.122-2.829,3.122-4.494,0-2.106-1.873-3.413-4.889-3.413a8.166,8.166,0,0,0-6.577,3.017,1.691,1.691,0,0,1-2.16.37L.841,9.049A1.706,1.706,0,0,1,.032,7.914,1.653,1.653,0,0,1,.33,6.6C3.586,2.281,8.776,0,15.337,0,23.959,0,29.53,4.144,29.53,10.558c0,5.012-2.983,7.643-5.38,9.758-1.7,1.5-3.165,2.792-3.432,4.593a1.683,1.683,0,0,1-1.661,1.422M14.44,6.906c3.886,0,6.5,2.018,6.5,5.021,0,2.378-1.773,3.985-3.65,5.686-2.057,1.864-4.184,3.791-4.527,7a.1.1,0,0,0,.026.08l6.27.027a.069.069,0,0,0,.069-.049c.354-2.383,2.1-3.927,3.96-5.563,2.378-2.1,4.836-4.265,4.836-8.551,0-5.521-4.823-8.95-12.585-8.95C9.3,1.609,4.555,3.669,1.614,7.567l-.367.788.407-.693,4.862,2.852a.1.1,0,0,0,.1,0A9.726,9.726,0,0,1,14.44,6.906" transform="translate(0 0)" fill="#30475a"/>
      <path id="Path_150" data-name="Path 150" d="M28.781,13.245a.733.733,0,0,1-.1-.006.8.8,0,0,1-.7-.9,5.224,5.224,0,0,0-1.2-4.3C25.16,6.21,22.1,5.2,18.161,5.2a.8.8,0,0,1,0-1.609c4.407,0,7.9,1.2,9.822,3.389a6.86,6.86,0,0,1,1.594,5.561.8.8,0,0,1-.8.7" transform="translate(-3.397 -0.703)" fill="#30475a"/>
      <path id="Path_151" data-name="Path 151" d="M21.477,43.668A.8.8,0,0,1,20.684,43a1.467,1.467,0,0,0-.636-1.011,1.856,1.856,0,0,0-1.341-.242.8.8,0,1,1-.263-1.587,3.458,3.458,0,0,1,2.495.49,3.077,3.077,0,0,1,1.331,2.088.8.8,0,0,1-.662.925.818.818,0,0,1-.132.01" transform="translate(-3.478 -7.848)" fill="#30475a"/>
    </g>
  </g>
</svg>
