<svg xmlns="http://www.w3.org/2000/svg" xmlns:xlink="http://www.w3.org/1999/xlink" width="53.081" height="53.081" viewBox="0 0 53.081 53.081">
  <defs>
    <clipPath id="clip-path">
      <rect id="Rectangle_15" data-name="Rectangle 15" width="42.917" height="32.151" fill="#30475a"/>
    </clipPath>
  </defs>
  <g id="Group_26" data-name="Group 26" transform="translate(53.081 22.734) rotate(135)">
    <g id="Group_25" data-name="Group 25" transform="translate(0 0)" clip-path="url(#clip-path)">
      <path id="Path_119" data-name="Path 119" d="M12.6,23.84a6.348,6.348,0,0,0,.226-2.125l3.886-1.676L30.5,30.823a.7.7,0,0,0,.085.059c.2.116,4.822,2.791,8.1.008a.793.793,0,0,0-.052-1.253L22.937,18.427l19.243-1.4a.8.8,0,0,0,.718-.971c-.4-1.727-2.356-4.763-6.9-3.93L18.549,13.555l-2.458-3.467a6.421,6.421,0,1,0-3.356,2.461.795.795,0,1,0-.474-1.517,4.824,4.824,0,1,1,2.226-1.464.791.791,0,0,0-.189.593.8.8,0,0,0,.273.526l2.944,4.154a.8.8,0,0,0,.715.332L36.171,13.7c.027,0,.055-.006.082-.01,2.884-.542,4.184.829,4.735,1.825L20.624,17a.794.794,0,0,0-.4,1.439l16.533,11.8c-2.212.934-4.958-.505-5.316-.7L17.321,18.5a.793.793,0,0,0-.8-.1l-4.674,2.018a.8.8,0,0,0-.507.308.787.787,0,0,0-.147.6,4.833,4.833,0,0,1-6.074,5.434,4.831,4.831,0,1,1,4.934-7.842.794.794,0,0,0,.892.214L15.26,17.4a.795.795,0,1,0-.593-1.475l-3.82,1.533A6.421,6.421,0,1,0,12.6,23.84" transform="translate(0 0)" fill="#30475a"/>
      <path id="Path_120" data-name="Path 120" d="M16.354,8.1a.795.795,0,1,0,1.53.43,3.837,3.837,0,0,0-5.889-4.185.794.794,0,1,0,.908,1.3A2.248,2.248,0,0,1,16.354,8.1" transform="translate(-3.433 -1.078)" fill="#30475a"/>
    </g>
  </g>
</svg>
