<svg xmlns="http://www.w3.org/2000/svg" xmlns:xlink="http://www.w3.org/1999/xlink" width="49.096" height="52.442" viewBox="0 0 49.096 52.442">
  <defs>
    <clipPath id="clip-path">
      <rect id="Rectangle_19" data-name="Rectangle 19" width="32.108" height="41.888" fill="#30475a"/>
    </clipPath>
  </defs>
  <g id="Group_34" data-name="Group 34" transform="translate(49.096 35.905) rotate(149)">
    <g id="Group_33" data-name="Group 33" transform="translate(0 0)" clip-path="url(#clip-path)">
      <path id="Path_129" data-name="Path 129" d="M30.129,7.425,18.972.606a4.143,4.143,0,0,0-5.69,1.374.843.843,0,0,0-.061.119L2.07,29.282a.849.849,0,0,0,1.571.642L14.762,2.81a2.446,2.446,0,0,1,3.325-.757L29.244,8.873a2.446,2.446,0,0,1,.843,3.3L11.028,34.44a.927.927,0,0,0-.08.11A2.433,2.433,0,0,1,8.732,35.7L3.562,32.543c-.013-.008-.026-.012-.038-.019a.845.845,0,0,0-1.4.938L.061,38.6a.851.851,0,0,0,.344,1.04l3.472,2.121A.849.849,0,0,0,4.96,41.6L8.6,37.4A4.137,4.137,0,0,0,12.357,35.5L31.422,13.225a.8.8,0,0,0,.078-.109,4.145,4.145,0,0,0-1.372-5.691M4.15,39.942,1.9,38.568l1.518-3.778c.029.02.054.041.085.059l3.2,1.957c.036.023.075.041.113.062Z" transform="translate(0 0)" fill="#30475a"/>
      <path id="Path_130" data-name="Path 130" d="M21.721,27.208,32.46,14.656a.992.992,0,0,0,.08-.109,3.081,3.081,0,0,0-1.019-4.229L23.97,5.7a3.078,3.078,0,0,0-4.227,1.022.848.848,0,1,0,1.446.885,1.382,1.382,0,0,1,1.9-.459l7.55,4.615a1.38,1.38,0,0,1,.487,1.845L20.431,26.106a.847.847,0,0,0,.093,1.2.868.868,0,0,0,.109.081.849.849,0,0,0,1.087-.173" transform="translate(-4.844 -1.297)" fill="#30475a"/>
      <path id="Path_131" data-name="Path 131" d="M17.728,36.785a.848.848,0,0,0-1.2.093l-1.972,2.3a.849.849,0,0,0,.093,1.2.83.83,0,0,0,.11.08.851.851,0,0,0,1.087-.172l1.972-2.3a.85.85,0,0,0-.095-1.2" transform="translate(-3.545 -9.032)" fill="#30475a"/>
    </g>
  </g>
</svg>
