<svg xmlns="http://www.w3.org/2000/svg" xmlns:xlink="http://www.w3.org/1999/xlink" width="46.875" height="33.412" viewBox="0 0 46.875 33.412">
  <defs>
    <clipPath id="clip-path">
      <rect id="Rectangle_16" data-name="Rectangle 16" width="46.875" height="33.412" fill="#30475a"/>
    </clipPath>
  </defs>
  <g id="Group_27" data-name="Group 27" clip-path="url(#clip-path)">
    <path id="Path_121" data-name="Path 121" d="M45.115,15.889a.843.843,0,0,0-.674.071L28.267,25.1a.848.848,0,1,0,.835,1.477l16.175-9.144a.848.848,0,0,0-.162-1.548" transform="translate(-6.861 -3.907)" fill="#30475a"/>
    <path id="Path_122" data-name="Path 122" d="M53.2,15.415l1.851-1.032A.849.849,0,1,0,54.22,12.9l-1.852,1.034a.849.849,0,0,0,.828,1.481" transform="translate(-12.8 -3.153)" fill="#30475a"/>
    <path id="Path_123" data-name="Path 123" d="M.1,20.91a.85.85,0,0,0,1.145.36L3.01,20.35l.7,1.347-1.77.921a.849.849,0,0,0,.785,1.506L4.5,23.2l.7,1.347-1.766.921a.849.849,0,1,0,.784,1.506l1.767-.921.7,1.347-1.769.922a.848.848,0,0,0,.784,1.5l1.769-.922.7,1.347-1.77.922a.849.849,0,0,0,.785,1.506l1.785-.931A3.671,3.671,0,0,0,13.734,33c2.383-1.243,1.108-3.689.69-4.493L13.7,27.123,17.2,25.3a6.516,6.516,0,0,0,6.175.34L43.262,14.178a6.71,6.71,0,0,0,2.85-9.051l-.788-1.512A6.7,6.7,0,0,0,41.38.311a6.64,6.64,0,0,0-5.075.436L15.453,10.509a5.561,5.561,0,0,0-2.207,2.123.849.849,0,1,0,1.456.873,3.881,3.881,0,0,1,1.5-1.475L37.058,2.268A5.019,5.019,0,0,1,43.819,4.4l.788,1.512a5.027,5.027,0,0,1-2.161,6.779L22.561,24.151c-2.464,1.283-5.96-.59-7.213-2.995l-.789-1.514a6.542,6.542,0,0,1-.668-3.349.848.848,0,0,0-1.42-.674L8.727,17.571l-.785-1.5A4.32,4.32,0,0,0,5.779,13.81a2.439,2.439,0,0,0-1.915.247A3.658,3.658,0,0,0,2.233,18.84l-1.777.925A.851.851,0,0,0,.1,20.91m4.551-5.348c.413-.215.881-.458,1.79,1.286L10.4,24.456a.848.848,0,0,0,1.5-.784L9.511,19.078l2.729-1.423a7.913,7.913,0,0,0,.816,2.771l.788,1.513a7.928,7.928,0,0,0,1.8,2.259L12.167,26.01a.85.85,0,0,0-.361,1.146l1.112,2.133c.91,1.745.442,1.988.03,2.2a1.97,1.97,0,0,1-2.655-.836l-.225-.433L7.1,24.52l0,0h0L5.609,21.666v0h0L4.123,18.813v0l-.31-.6a1.969,1.969,0,0,1,.835-2.653" transform="translate(0 0)" fill="#30475a"/>
  </g>
</svg>
