<svg xmlns="http://www.w3.org/2000/svg" xmlns:xlink="http://www.w3.org/1999/xlink" width="43.089" height="38.835" viewBox="0 0 43.089 38.835">
  <defs>
    <clipPath id="clip-path">
      <rect id="Rectangle_17" data-name="Rectangle 17" width="36.086" height="40.671" fill="#30475a"/>
    </clipPath>
  </defs>
  <g id="Group_29" data-name="Group 29" transform="matrix(-0.07, -0.998, 0.998, -0.07, 2.517, 38.835)" clip-path="url(#clip-path)">
    <path id="Path_124" data-name="Path 124" d="M29.69,40.458a.886.886,0,0,0,.346-.627c.051-.614-.5-1-1.064-1.349a3.929,3.929,0,0,1-1.826-2.664,3.854,3.854,0,0,1,3.187-4.5,5.9,5.9,0,0,0,4.838-5.3,6,6,0,0,0-.073-1.542,5.855,5.855,0,0,0-2.438-3.8c-.088-.063-.182-.117-.273-.173a5.887,5.887,0,0,0,3.348-3.462,5.986,5.986,0,0,0,.33-1.509,5.9,5.9,0,0,0-3.878-6.042,3.908,3.908,0,0,1-2.6-3.975A3.849,3.849,0,0,1,29.8,4.52,3.9,3.9,0,0,1,31.825,2.3c.655-.307,1.245-.633,1.3-1.24a.9.9,0,0,0-.246-.694,1.873,1.873,0,0,0-1.5-.356A10.575,10.575,0,0,0,22.48,5.474C14.866,5.16.891,16.632.293,17.129a.739.739,0,0,0-.119.122.257.257,0,0,0-.018.027.8.8,0,0,0-.086.15l-.021.052a.865.865,0,0,0-.046.2v0H0a.805.805,0,0,0,.012.208.431.431,0,0,0,.013.053.746.746,0,0,0,.058.163c.005.011.009.021.014.03a.794.794,0,0,0,.1.144c.5.586,12.278,14.154,19.842,15.2a10.69,10.69,0,0,0,8.152,7.1,1.829,1.829,0,0,0,1.5-.123M9.515,22.642a.81.81,0,0,0-.309-1.1L2.764,17.92l9.5-3.357a.81.81,0,0,0-.54-1.528L5.378,15.277c4.488-3.256,11.7-7.935,16.375-8.183a10.659,10.659,0,0,0-.572,2.646h0a10.581,10.581,0,0,0,.867,5.167c-1.289.854-2.011,2.313-2.193,4.455-.183,2.166.3,3.741,1.469,4.806a10.569,10.569,0,0,0-1.8,5.055,10.69,10.69,0,0,0,.095,2.539C15.079,30.711,8.812,24.951,4.941,21l3.47,1.948a.81.81,0,0,0,1.1-.309M21.469,19.5a4.147,4.147,0,0,1,1.343-3.159,10.632,10.632,0,0,0,4.014,3.688,10.629,10.629,0,0,0-4.5,2.873,4.078,4.078,0,0,1-.861-3.4m8.148-17.62a5.5,5.5,0,0,0,2.02,9.134,4.278,4.278,0,0,1-2.9,8.048.7.7,0,0,0-.24-.04A9.013,9.013,0,0,1,29.617,1.879M21.252,31.717a9,9,0,0,1,7.02-10.408.794.794,0,0,0,.264,0,4.278,4.278,0,1,1,1.51,8.421,5.533,5.533,0,0,0-4.565,4.941A5.471,5.471,0,0,0,25.55,36.1a5.564,5.564,0,0,0,.972,2.282,9.066,9.066,0,0,1-5.27-6.668" transform="translate(0 0)" fill="#30475a"/>
    <path id="Path_125" data-name="Path 125" d="M23.83,16.765a.81.81,0,0,0-.54-1.528l-2.266.8a.81.81,0,1,0,.54,1.528Z" transform="translate(-5.746 -4.261)" fill="#30475a"/>
  </g>
</svg>
