<svg xmlns="http://www.w3.org/2000/svg" width="46.19" height="44.822" viewBox="0 0 46.19 44.822">
  <g id="Group_41" data-name="Group 41" transform="translate(-55 -2)">
    <g id="Group_42" data-name="Group 42" transform="translate(55 2)">
      <path id="Path_142" data-name="Path 142" d="M42.774,20.63l.023-.19h-.031c.026-.372.04-.725.04-1.063l-.007-.2a12.25,12.25,0,0,0-.077-1.494,17.606,17.606,0,0,0-6-11.68C33.948,3.581,26,1.971,24.407,1.668,23.33.609,22.509,0,21.613,0l-.065,0a15.617,15.617,0,0,0-4.82,1.911c-.18.134-.369.292-.585.482A17.92,17.92,0,0,0,7.205,8.649,17.594,17.594,0,0,0,3.6,19.375c0,.083,0,.166.008.25,0,.034,0,.069,0,.1,0,.292,0,.579.01.859A5.126,5.126,0,0,0,0,25.424v1.381a5.226,5.226,0,0,0,4.935,5.133,18.7,18.7,0,0,0,8.806,10.5l1.574.778.041.019a19.449,19.449,0,0,0,7.741,1.59,23.119,23.119,0,0,0,8.409-1.9l.927-.478.017-.009a18.7,18.7,0,0,0,8.805-10.5,5.226,5.226,0,0,0,4.935-5.133V25.424a5.181,5.181,0,0,0-3.416-4.795M8.58,9.693A16.175,16.175,0,0,1,16.817,4L17,3.942l.144-.128c.246-.218.444-.389.617-.517a15.415,15.415,0,0,1,3.883-1.568c.286.03.868.483,1.731,1.349l.192.192.267.048c2.519.454,9.539,2.055,11.748,3.987A15.879,15.879,0,0,1,41,17.809l.006.063a10.4,10.4,0,0,1,.067,1.32v.02l.008.181c0,.313-.013.635-.039.979-7.521-.647-29.079-6.564-29.3-6.624l-.65-.179-.331.587c-.744,1.319-3.517,3.764-5.432,5.344,0-.042,0-.084,0-.125A15.881,15.881,0,0,1,8.58,9.693M1.726,26.805V25.424a3.372,3.372,0,0,1,2.056-3.052l.829,7.786a3.472,3.472,0,0,1-2.885-3.354m29.9,14.112-.835.433A21.627,21.627,0,0,1,23.1,43.1a17.732,17.732,0,0,1-7.038-1.44l-1.5-.743a16.911,16.911,0,0,1-8.126-10L5.44,21.633a43.235,43.235,0,0,0,6.449-6.055c3.633.989,21.872,5.886,28.965,6.511l-1.09,8.821a16.914,16.914,0,0,1-8.135,10.006M44.464,26.805a3.472,3.472,0,0,1-2.867,3.35l.956-7.741a3.417,3.417,0,0,1,1.91,3.009Z" transform="translate(0 -0.001)" fill="#30475a"/>
      <path id="Path_143" data-name="Path 143" d="M132.461,242.1a2.9,2.9,0,1,0,2.9,2.9,2.905,2.905,0,0,0-2.9-2.9m0,4.077A1.175,1.175,0,1,1,133.636,245a1.177,1.177,0,0,1-1.175,1.175" transform="translate(-117.132 -218.877)" fill="#30475a"/>
      <path id="Path_144" data-name="Path 144" d="M302.245,242.1a2.9,2.9,0,1,0,2.9,2.9,2.905,2.905,0,0,0-2.9-2.9m0,4.077A1.175,1.175,0,1,1,303.42,245a1.177,1.177,0,0,1-1.175,1.175" transform="translate(-270.632 -218.877)" fill="#30475a"/>
      <path id="Path_145" data-name="Path 145" d="M193.717,349.926a6.19,6.19,0,0,1-4.555,2.144,6.581,6.581,0,0,1-4.207-2.1.863.863,0,0,0-1.31,1.125,8.251,8.251,0,0,0,5.436,2.7c.084,0,.167,0,.25,0a7.928,7.928,0,0,0,5.606-2.653.863.863,0,1,0-1.221-1.221" transform="translate(-165.843 -316.134)" fill="#30475a"/>
      <path id="Path_146" data-name="Path 146" d="M167.121,119.249a.863.863,0,0,0,.6,1.061c.64.176,15.738,4.319,21,4.708l.065,0a.863.863,0,0,0,.063-1.724c-5.091-.376-20.511-4.608-20.666-4.651a.863.863,0,0,0-1.061.6" transform="translate(-151.064 -106.826)" fill="#30475a"/>
      <path id="Path_148" data-name="Path 148" d="M105.839,62.081a.863.863,0,0,0,1.209-.167,11.128,11.128,0,0,1,6.72-4.4.863.863,0,1,0-.45-1.667,12.858,12.858,0,0,0-7.646,5.02.863.863,0,0,0,.167,1.209" transform="translate(-96.177 -50.468)" fill="#30475a"/>
    </g>
  </g>
</svg>
