<svg xmlns="http://www.w3.org/2000/svg" width="188.582" height="57.707" viewBox="0 0 188.582 57.707">
  <g id="Group_98" data-name="Group 98" transform="translate(-4.731 0)">
    <path id="Path_76" data-name="Path 76" d="M33.407,91.888a13.341,13.341,0,0,1-5.871,3.941,11.747,11.747,0,0,1-8.717-.558,10.615,10.615,0,0,1-5.856-6.214,10.039,10.039,0,0,1,.742-8.58,12.029,12.029,0,0,1,7.23-5.816,12.638,12.638,0,0,1,7.033-.194q-.34.931-.672,1.86a10.241,10.241,0,0,0-5.786.174,10,10,0,0,0-5.981,4.777,8.32,8.32,0,0,0-.661,7.1A8.725,8.725,0,0,0,19.7,93.552a9.8,9.8,0,0,0,7.271.462,10.4,10.4,0,0,0,4.279-2.572l-.863-2.955q-2.431.709-4.849,1.465-.284-.907-.568-1.816,3.388-1.059,6.8-2.026.821,2.889,1.64,5.778M23.122,78.151a8.115,8.115,0,0,0-4.535,3.912,6.843,6.843,0,0,0-.491,5.6,7.167,7.167,0,0,0,4.976,4.7,8.678,8.678,0,0,0,3.815-.109l-.424.132a8.189,8.189,0,0,1-4.14.222,7.973,7.973,0,0,1-3.5-1.681,6.965,6.965,0,0,1-2.2-3.162,6.855,6.855,0,0,1,.547-5.788A8.063,8.063,0,0,1,22.01,78.1a4.671,4.671,0,0,1,1.112.049m7.091-3.8q-.558,1.454-1.1,2.908l-.309-.081c-.144-.037-.256-.061-.335-.074q.523-1.465,1.063-2.928l.681.174m5.907,17.71c-.258.3-.666.728-1.221,1.3-.257.07-.513.143-.768.215q.523-.51,1.216-1.3-1.15-4.148-2.3-8.3c.266-.073.532-.147.8-.219q1.135,4.151,2.272,8.3" transform="translate(-7.598 -40.667)" fill="#fff"/>
    <path id="Path_77" data-name="Path 77" d="M72.224,83.637q-4.711,1.071-9.388,2.314Q60.064,75.528,57.29,65.105q4.655-1.24,9.342-2.318.209.914.421,1.83-3.618.833-7.221,1.762,1.429,5.536,2.857,11.074,3.482-.9,6.981-1.7.211.914.421,1.83-3.474.8-6.932,1.691.561,2.181,1.125,4.362,3.751-.966,7.524-1.824.208.915.416,1.83m-2.2-17.461q-2.489.551-4.968,1.144-.574,4.011-1.067,8.019-.979-3.894-1.955-7.791,3.529-.887,7.078-1.68-.388-1.735-.777-3.469l.814-.18.875,3.957M72.8,78.738q-3.367.745-6.721,1.575.125.511.253,1.02c-.262.064-.523.13-.785.2q-.188-.751-.378-1.506,3.37-.846,6.756-1.6-.526-2.358-1.055-4.713c.26-.058.521-.117.781-.174q.576,2.6,1.149,5.2m1.736,4.41-.778.17q-.39-1.771-.782-3.542l.789-.174q.386,1.773.772,3.545" transform="translate(-32.287 -34.165)" fill="#fff"/>
    <path id="Path_78" data-name="Path 78" d="M111.121,76.542q-8.869-8.061-18.745-15.5,1.708,8.412,3.414,16.825-.931.189-1.859.385-2.3-10.936-4.6-21.87Q99.4,63.7,108.487,71.693q-1.275-8.489-2.551-16.978,1.011-.152,2.024-.3,1.579,11.061,3.16,22.123M106.063,67.3q-6.32-5.317-13.1-10.333l.788-.155q6.284,4.665,12.173,9.6c.046.3.093.594.14.89m-8.777-.285q.44,5.189.918,10.372c-.243.048-.486.094-.729.143l-2.4-12.256q1.115.866,2.215,1.74m16.088,7.922-.761.1-2.847-20.877.822-.111q1.393,10.442,2.786,20.885" transform="translate(-49.879 -29.683)" fill="#fff"/>
    <path id="Path_79" data-name="Path 79" d="M156.579,50.573q-3.4.237-6.786.558l1.852,19.608c-.636.061-1.272.122-1.907.188q-1-9.8-2-19.594-3.4.348-6.8.775-.117-.931-.234-1.863,7.851-.991,15.739-1.545.066.935.131,1.873m-10.507,3.452q-2.41.262-4.816.565c-.032-.257-.063-.513-.1-.77q2.414-.3,4.83-.568c.028.258.056.514.083.772m10.9-1.749q-2.1,1.137-4.159,2.3.676,7.967,1.351,15.934l-.789.068q-.786-8.951-1.573-17.9,2.584-.229,5.17-.407m2.231-.146-.844.054-.231-3.6.855-.054q.111,1.8.22,3.6" transform="translate(-78.093 -26.65)" fill="#fff"/>
    <path id="Path_80" data-name="Path 80" d="M196.028,69.174q-4.607.089-9.212.339-.586-10.77-1.171-21.54c.689-.038,1.38-.073,2.07-.106q.463,9.837.927,19.674,3.674-.173,7.351-.244.017.939.036,1.876m-4.752-21.452q-.1,8.994-.156,17.986l-.8.032q-.365-8.977-.727-17.954.842-.034,1.684-.064m7.1,21.441c-.263,0-.528.007-.79.01q-.026-1.813-.05-3.628l.8-.009q.019,1.814.037,3.626" transform="translate(-102.768 -26.205)" fill="#fff"/>
    <path id="Path_81" data-name="Path 81" d="M227.469,69.06q-4.8-.157-9.6-.14-.038-10.787-.075-21.573,4.778-.018,9.556.127-.028.939-.056,1.876-3.689-.111-7.38-.124-.024,5.717-.046,11.436,3.568.014,7.135.122-.029.938-.057,1.877-3.543-.108-7.085-.122-.009,2.254-.018,4.505,3.843.014,7.687.142-.03.937-.061,1.875m2.29-17.446q-2.53-.1-5.063-.152-1.563,3.734-3.045,7.486.042-4.017.084-8.033,3.614.039,7.227.168l.127-3.551c.277.009.551.019.829.031q-.08,2.024-.159,4.052m-.5,12.853q-3.428-.133-6.857-.18c-.005.351-.009.7-.015,1.051-.267,0-.535-.006-.8-.009q.009-.776.017-1.552,3.449.037,6.9.161.085-2.415.173-4.828l.795.029q-.1,2.664-.207,5.328m.556,4.7c-.262-.011-.527-.022-.789-.032q.07-1.813.14-3.624l.8.032q-.076,1.813-.152,3.624" transform="translate(-120.422 -25.998)" fill="#fff"/>
    <path id="Path_82" data-name="Path 82" d="M268.742,70.347q-.9-.113-1.8-.221.9-7.592,1.812-15.183-5.3,7.217-10.13,14.625-3.463-8.127-7.429-16.16-.425,7.633-.852,15.265-.9-.05-1.809-.094.545-11.212,1.095-22.422,5.033,9.729,9.327,19.619,5.946-8.987,12.6-17.7-1.408,11.136-2.816,22.271m-9.065-8.6q-.212.32-.425.64-3.162-6.907-6.693-13.739c.522.031,1.045.064,1.565.1q2.926,6.474,5.554,13m-5.793,1.1q-.606,2.983-1.2,5.966c-.237-.015-.475-.031-.712-.045q.273-4.4.543-8.793.691,1.434,1.366,2.872m12.268-.323q-2.446,3.489-4.783,7.019l-.737-.071q2.759-4.175,5.669-8.29c-.05.447-.1.894-.15,1.342m4.9,8.123-.71-.1,2.644-19.946.765.1q-1.351,9.97-2.7,19.939" transform="translate(-137.3 -25.346)" fill="#fff"/>
    <path id="Path_83" data-name="Path 83" d="M312.028,76.56q-4.743-.854-9.507-1.533,1.522-10.677,3.042-21.357,4.744.676,9.467,1.512c-.11.616-.218,1.232-.328,1.848q-3.647-.644-7.308-1.194-.847,5.655-1.7,11.31,3.539.531,7.065,1.157c-.11.615-.217,1.231-.327,1.848q-3.5-.62-7.014-1.148-.336,2.229-.67,4.455,3.811.573,7.611,1.256c-.11.616-.222,1.232-.332,1.847m4.8-16.932q-2.5-.466-5.006-.886-2.089,3.47-4.105,6.966.625-3.967,1.245-7.936,3.58.561,7.15,1.215.321-1.747.64-3.495c.273.049.546.1.818.151q-.371,1.992-.742,3.985M314.47,72.275q-3.386-.63-6.784-1.173l-.165,1.037-.794-.125q.12-.766.241-1.533,3.416.536,6.822,1.16.437-2.375.871-4.751c.262.047.524.1.784.145q-.485,2.621-.974,5.241m-.127,4.737c-.26-.05-.52-.1-.78-.147q.329-1.784.664-3.566l.79.148q-.339,1.783-.674,3.565" transform="translate(-166.946 -29.471)" fill="#fff"/>
    <path id="Path_84" data-name="Path 84" d="M349.306,84.605q-5.057-10.9-11.246-21.6-1.715,8.409-3.429,16.822c-.622-.127-1.241-.251-1.863-.372q2.153-10.966,4.308-21.929,6.409,10.67,11.691,21.584,2.144-8.311,4.288-16.625c.664.171,1.325.344,1.989.521q-2.87,10.8-5.738,21.6M348.242,74.12q-3.764-7.37-8.05-14.635l.787.165q3.967,6.752,7.481,13.6c-.072.29-.146.581-.218.873m-7.993-3.7q-1.623,4.947-3.207,9.906l-.73-.154q1.288-6.109,2.575-12.219.688,1.231,1.361,2.467m11.769,13.593-.744-.2q2.772-10.164,5.541-20.33l.8.22q-2.8,10.157-5.6,20.314" transform="translate(-183.555 -31.588)" fill="#fff"/>
    <path id="Path_85" data-name="Path 85" d="M395.769,72.374q-2.451,1.927-4.845,3.893c-.414-.119-.827-.237-1.241-.355q1.7-2.17,3.433-4.325,1.326.386,2.654.787" transform="translate(-214.808 -39.309)" fill="#fff"/>
    <path id="Path_86" data-name="Path 86" d="M404.3,96.962a4.983,4.983,0,0,1-2.729,2.961,5.664,5.664,0,0,1-7.448-2.623c.6-.26,1.2-.519,1.8-.776a3.566,3.566,0,0,0,4.753,1.694,3.249,3.249,0,0,0,1.581-4.365q-1.015-2.15-2.076-4.3a6.454,6.454,0,0,1-.473-4.933,5.452,5.452,0,0,1,3.221-3.515,7.049,7.049,0,0,1,5.2-.116q-.305.888-.609,1.776a4.962,4.962,0,0,0-3.6.057,3.773,3.773,0,0,0-2.253,2.423,4.6,4.6,0,0,0,.319,3.579q1.075,2.147,2.1,4.3a4.863,4.863,0,0,1,.218,3.837m2.44.865a6.639,6.639,0,0,1-4.122,4.113l-.733-.255a6.641,6.641,0,0,0,4.11-4.126,6.43,6.43,0,0,0-.243-5.075q-1.015-2.155-2.07-4.3a3.046,3.046,0,0,1-.224-2.344,2.229,2.229,0,0,1,1.332-1.442,3.01,3.01,0,0,1,2.143,0l.863.3c-.01.032-.021.064-.032.1a2.553,2.553,0,0,0-3,1.885,2.639,2.639,0,0,0,.205,1.945q.933,2.115,1.823,4.236a6.653,6.653,0,0,1-.051,4.976m2.621-12.589a4.839,4.839,0,0,0-.835-.214q.609-1.734,1.214-3.472l.82.288-1.2,3.4" transform="translate(-217.247 -44.233)" fill="#fff"/>
    <path id="Path_87" data-name="Path 87" d="M219.915,4.89c-.957,2.3-5.465,1.6-6.849,1.1s-1.677-.584-4.882-3.718c-3.8-3.713-6.556-1.748-6.556-1.748a5.149,5.149,0,0,0-.805.651,5.412,5.412,0,0,0-.8-.651s-2.762-1.966-6.558,1.748c-3.207,3.133-3.5,3.208-4.885,3.718s-5.89,1.206-6.849-1.1c-.181-.437,1.549,5.911,9.364,4.791,6.178-.883,8.681-2.458,9.732-3.518,1.048,1.06,3.553,2.635,9.729,3.518,7.816,1.12,9.545-5.228,9.363-4.791" transform="translate(-100.61 0)" fill="#fff"/>
  </g>
</svg>
