<?xml version="1.0" encoding="utf-8"?>
<!-- Generator: Adobe Illustrator 27.7.0, SVG Export Plug-In . SVG Version: 6.00 Build 0)  -->
<svg version="1.1" id="Layer_1" xmlns="http://www.w3.org/2000/svg" xmlns:xlink="http://www.w3.org/1999/xlink" x="0px" y="0px"
	 viewBox="0 0 58 58" style="enable-background:new 0 0 58 58;" xml:space="preserve">
<style type="text/css">
	.st0{filter:url(#Ellipse_15);}
	.st1{fill:#FFFFFF;}
	.st2{clip-path:url(#SVGID_00000152243084034698119090000014613012452824790657_);}
	.st3{fill:#30475A;}
</style>
<filter  filterUnits="userSpaceOnUse" height="75" id="Ellipse_15" width="75" x="0" y="0">
	<feOffset  input="SourceAlpha"></feOffset>
	<feGaussianBlur  result="blur" stdDeviation="3"></feGaussianBlur>
	<feFlood  flood-color="#f5f8fa" flood-opacity="0.333"></feFlood>
	<feComposite  in2="blur" operator="in"></feComposite>
	<feComposite  in="SourceGraphic" operator="over"></feComposite>
</filter>
<g id="Group_111" transform="translate(-1471 -24)">
	<g id="Group_106" transform="translate(-18 -10)">
		<g transform="matrix(1, 0, 0, 1, 1489, 34)" class="st0">
			<circle id="Ellipse_15-2_00000090266706324277866560000008558971723914455207_" class="st1" cx="29" cy="29" r="29"/>
		</g>
	</g>
	<g id="Group_110" transform="translate(1495.362 47.726)">
		<g>
			<defs>
				<rect id="SVGID_1_" x="-8.7" y="-8.7" width="26.7" height="28"/>
			</defs>
			<clipPath id="SVGID_00000037687611814458109770000016517106786635801247_">
				<use xlink:href="#SVGID_1_"  style="overflow:visible;"/>
			</clipPath>
			
				<g id="Group_109" transform="translate(0 0)" style="clip-path:url(#SVGID_00000037687611814458109770000016517106786635801247_);">
				<path id="Path_169" class="st3" d="M15.7-1.5c-1-1.4-2.2-2.7-3.6-3.6c-0.6-0.4-1.4-0.2-1.8,0.4l-0.6,1c-0.3,0.6-0.2,1.3,0.4,1.7
					c4.4,3,5.6,9,2.5,13.4s-9,5.6-13.4,2.5s-5.6-9-2.5-13.4c0.7-1,1.5-1.9,2.5-2.5c0.6-0.4,0.7-1.1,0.4-1.7l-0.6-1
					c-0.4-0.6-1.2-0.8-1.8-0.4c0,0,0,0,0,0c-6.1,4.1-7.8,12.4-3.6,18.5c2,2.9,5,5,8.5,5.7c0.9,0.2,1.7,0.3,2.6,0.3
					c7.4,0,13.4-6,13.3-13.4C18,3.2,17.2,0.7,15.7-1.5"/>
				<path id="Path_170" class="st3" d="M4,5.3h1.3C6,5.3,6.5,4.7,6.5,4V-7.5c0-0.7-0.6-1.3-1.3-1.3H4c-0.7,0-1.3,0.6-1.3,1.3
					c0,0,0,0,0,0V4C2.7,4.7,3.3,5.3,4,5.3"/>
			</g>
		</g>
	</g>
</g>
</svg>
